<svg xmlns="http://www.w3.org/2000/svg" width="2048" height="2048" viewBox="-256 -384 2048 2048"><path fill="#eaeaea" d="M1280 354q-56 25-121 34 68-40 93-117-65 38-134 51-61-66-153-66-87 0-148.5 61.5T755 466q0 29 5 48-129-7-242-65T326 294q-29 50-29 106 0 114 91 175-47-1-100-26v2q0 75 50 133.5T461 757q-29 8-51 8-13 0-39-4 21 63 74.5 104T567 907q-116 90-261 90-26 0-50-3 148 94 322 94 112 0 210-35.5t168-95 120.5-137 75-162T1176 490q0-18-1-27 63-45 105-109zm256-194v960q0 119-84.5 203.5T1248 1408H288q-119 0-203.5-84.5T0 1120V160Q0 41 84.5-43.5T288-128h960q119 0 203.5 84.5T1536 160z"/></svg>